<svg width="22" height="22" viewBox="0 0 22 22" fill="none" xmlns="http://www.w3.org/2000/svg">
    <path d="M16.775 9.39993C17.6586 9.39993 18.3751 10.1164 18.3751 11.0001V18.4669C18.3751 18.8913 18.2065 19.2983 17.9065 19.5983C17.6064 19.8984 17.1994 20.067 16.775 20.067H5.04167C4.83153 20.067 4.62345 20.0256 4.42931 19.9452C4.23517 19.8648 4.05877 19.7469 3.91018 19.5983C3.76159 19.4498 3.64373 19.2733 3.56331 19.0792C3.4829 18.8851 3.44151 18.677 3.44151 18.4669V11.0001C3.44151 10.1164 4.158 9.39993 5.04167 9.39993H16.775ZM16.775 7.79979H5.04167C4.19291 7.79979 3.3789 8.13696 2.77874 8.73713C2.17857 9.3373 1.8414 10.1513 1.8414 11.0001V18.4669C1.8416 19.3155 2.17886 20.1293 2.779 20.7293C3.37915 21.3293 4.19304 21.6664 5.04167 21.6664H16.775C17.6236 21.6664 18.4375 21.3293 19.0377 20.7293C19.6378 20.1293 19.9751 19.3155 19.9753 18.4669V11.0001C19.9753 10.1513 19.6381 9.3373 19.0379 8.73713C18.4378 8.13696 17.6238 7.79979 16.775 7.79979ZM10.9083 1.93312C11.3986 1.93312 11.884 2.02969 12.3369 2.21732C12.7898 2.40495 13.2014 2.67997 13.548 3.02665C13.8946 3.37334 14.1695 3.78492 14.3571 4.23787C14.5446 4.69082 14.6411 5.17628 14.641 5.66653V7.80052H7.1764V5.66653C7.17641 4.67657 7.56967 3.72715 8.26967 3.02715C8.96968 2.32714 9.91909 1.93388 10.9091 1.93387L10.9083 1.93312ZM10.9091 0.333717C9.49464 0.333723 8.13815 0.89555 7.13794 1.89562C6.13774 2.8957 5.57573 4.25211 5.57553 5.66653V9.39993H16.2426V5.66726C16.2427 4.96672 16.1048 4.27304 15.8367 3.62581C15.5687 2.97859 15.1758 2.39051 14.6804 1.89516C14.1851 1.39981 13.597 1.00689 12.9498 0.738857C12.3025 0.470821 11.6089 0.332912 10.9083 0.333008L10.9091 0.333717ZM10.9091 17.1337C10.804 17.1337 10.7 17.113 10.603 17.0727C10.506 17.0325 10.4178 16.9736 10.3436 16.8993C10.2693 16.825 10.2105 16.7368 10.1704 16.6397C10.1302 16.5426 10.1096 16.4386 10.1097 16.3336V13.1334C10.1097 12.9214 10.1939 12.7181 10.3438 12.5681C10.4937 12.4182 10.6971 12.334 10.9091 12.334C11.121 12.334 11.3244 12.4182 11.4743 12.5681C11.6242 12.7181 11.7084 12.9214 11.7084 13.1334V16.3336C11.7084 16.5456 11.6242 16.7489 11.4743 16.8988C11.3244 17.0487 11.121 17.133 10.9091 17.133V17.1337Z" />
</svg>
